<?xml version="1.0" standalone="no"?>
<!DOCTYPE svg PUBLIC "-//W3C//DTD SVG 20010904//EN"
 "http://www.w3.org/TR/2001/REC-SVG-20010904/DTD/svg10.dtd">
<svg version="1.0" xmlns="http://www.w3.org/2000/svg"
 width="176.000000pt" height="94.000000pt" viewBox="0 0 176.000000 94.000000"
 preserveAspectRatio="xMidYMid meet">

<g transform="translate(0.000000,94.000000) scale(0.100000,-0.100000)"
fill="#000000" stroke="none">
<path d="M1460 575 l0 -295 60 0 60 0 0 295 0 295 -60 0 -60 0 0 -295z"/>
<path d="M560 837 c-14 -7 -30 -27 -35 -44 -10 -31 -11 -31 -23 -12 -27 43
-87 59 -229 59 l-133 0 0 -280 0 -280 65 0 65 0 0 105 0 105 63 0 c74 0 132
24 170 69 l27 33 0 -156 0 -156 124 0 124 0 40 49 39 50 38 -50 37 -49 74 0
75 0 -76 91 c-49 59 -72 95 -67 103 5 6 32 41 60 77 29 37 52 69 52 73 0 3
-31 6 -69 6 l-68 0 -28 -40 c-15 -22 -29 -40 -30 -40 -1 0 -15 18 -30 40 l-28
40 -68 0 c-38 0 -69 -2 -69 -5 0 -2 27 -40 61 -84 l61 -79 -64 -77 -63 -78 -3
162 -2 161 -55 0 -55 0 0 34 c0 19 -3 41 -6 50 -6 14 -3 14 22 1 38 -20 46
-19 78 6 19 15 26 30 26 54 0 24 -7 39 -26 54 -31 24 -40 25 -74 8z m-197
-108 c30 -16 37 -28 37 -65 0 -41 -28 -65 -85 -71 l-45 -6 0 77 0 76 36 0 c19
0 45 -5 57 -11z"/>
<path d="M1135 626 c-88 -39 -129 -158 -86 -251 44 -95 149 -134 229 -85 39
24 42 24 42 5 0 -12 13 -15 60 -15 l60 0 0 175 0 175 -60 0 c-45 0 -60 -4 -60
-14 0 -11 -8 -10 -37 5 -43 22 -105 24 -148 5z m144 -101 c31 -16 41 -33 41
-71 0 -59 -56 -96 -110 -74 -66 27 -69 111 -5 148 27 15 41 15 74 -3z"/>
<path d="M97 193 c-4 -3 -7 -27 -6 -52 0 -38 2 -42 9 -23 5 12 18 22 29 22 23
0 35 28 20 46 -12 15 -41 19 -52 7z m43 -28 c0 -8 -9 -15 -20 -15 -11 0 -20 7
-20 15 0 8 9 15 20 15 11 0 20 -7 20 -15z"/>
<path d="M260 150 c0 -27 5 -50 10 -50 6 0 10 23 10 50 0 28 -4 50 -10 50 -5
0 -10 -22 -10 -50z"/>
<path d="M1620 185 c0 -9 -9 -15 -24 -15 -30 0 -40 -14 -32 -46 5 -20 12 -24
36 -22 29 2 30 4 30 50 0 26 -2 48 -5 48 -3 0 -5 -7 -5 -15z m-6 -34 c9 -14
-4 -41 -19 -41 -15 0 -28 27 -19 41 3 5 11 9 19 9 8 0 16 -4 19 -9z"/>
<path d="M385 150 c-9 -27 11 -50 41 -48 20 2 24 8 24 35 0 30 -3 33 -29 33
-21 0 -32 -6 -36 -20z m50 -15 c0 -28 -29 -25 -33 3 -3 19 0 23 15 20 10 -2
18 -12 18 -23z"/>
<path d="M561 142 c-1 -27 3 -35 22 -40 22 -6 22 -6 -3 -13 -22 -5 -23 -7 -7
-14 28 -12 47 13 46 59 -1 37 -2 38 -8 11 -3 -17 -13 -30 -21 -30 -8 0 -18 13
-21 30 l-7 30 -1 -33z"/>
<path d="M734 156 c-10 -27 1 -51 26 -55 l25 -4 -25 -7 c-22 -6 -23 -8 -7 -15
27 -11 47 13 47 56 0 37 -2 39 -30 39 -17 0 -33 -6 -36 -14z m46 -15 c0 -11
-5 -23 -11 -27 -15 -9 -33 12 -26 30 9 23 37 20 37 -3z"/>
<path d="M900 141 c0 -17 5 -33 10 -36 6 -4 10 6 10 24 0 20 6 31 18 34 10 3
6 5 -10 6 -25 1 -28 -3 -28 -28z"/>
<path d="M1054 156 c-11 -28 1 -51 25 -51 28 0 47 25 38 49 -8 20 -56 21 -63
2z m50 -5 c9 -14 -4 -41 -19 -41 -18 0 -28 17 -21 35 6 17 32 20 40 6z"/>
<path d="M1220 154 c0 -24 19 -54 36 -54 21 0 41 47 26 62 -9 9 -12 4 -12 -20
0 -22 -5 -32 -15 -32 -10 0 -15 10 -15 30 0 17 -4 30 -10 30 -5 0 -10 -7 -10
-16z"/>
<path d="M1390 141 c0 -17 5 -33 10 -36 6 -4 10 7 10 24 0 21 5 31 15 31 10 0
15 -10 15 -30 0 -16 5 -30 10 -30 6 0 10 9 10 19 0 37 -12 51 -41 51 -25 0
-29 -4 -29 -29z"/>
</g>
</svg>
